<svg xmlns="http://www.w3.org/2000/svg" xmlns:xlink="http://www.w3.org/1999/xlink" contentStyleType="text/css" data-diagram-type="MINDMAP" height="1003px" preserveAspectRatio="none" style="width:633px;height:1003px;background:#FFFFFF;" version="1.1" viewBox="0 0 633 1003" width="633px" zoomAndPan="magnify"><title>veux - Partitions layout</title><defs/><g><g class="title" data-source-line="4"><text fill="#000000" font-family="sans-serif" font-size="14" font-weight="bold" lengthAdjust="spacing" textLength="185.2129" x="222.8657" y="32.9951">veux - Partitions layout</text></g><rect fill="#F1F1F1" height="36.2969" rx="12.5" ry="12.5" style="stroke:#181818;stroke-width:1.5;" width="96.0225" x="10" y="254.3359"/><text fill="#000000" font-family="sans-serif" font-size="14" lengthAdjust="spacing" textLength="76.0225" x="20" y="277.3311">Stock ROM</text><rect fill="#F1F1F1" height="36.2969" rx="12.5" ry="12.5" style="stroke:#181818;stroke-width:1.5;" width="51.5068" x="156.0225" y="127.668"/><text fill="#000000" font-family="sans-serif" font-size="14" lengthAdjust="spacing" textLength="31.5068" x="166.0225" y="150.6631">boot</text><rect fill="#F1F1F1" height="36.2969" rx="12.5" ry="12.5" style="stroke:#181818;stroke-width:1.5;" width="90.9639" x="257.5293" y="57.2969"/><text fill="#000000" font-family="sans-serif" font-size="14" lengthAdjust="spacing" textLength="70.9639" x="267.5293" y="80.292">header v3</text><path d="M207.5293,145.8164 L217.5293,145.8164 C232.5293,145.8164 232.5293,75.4453 247.5293,75.4453 L257.5293,75.4453" fill="none" style="stroke:#181818;stroke-width:1;"/><rect fill="#F1F1F1" height="36.2969" rx="12.5" ry="12.5" style="stroke:#181818;stroke-width:1.5;" width="51.5342" x="257.5293" y="155.8164"/><text fill="#000000" font-family="sans-serif" font-size="14" lengthAdjust="spacing" textLength="31.5342" x="267.5293" y="178.8115">data</text><rect fill="#ADD8E6" height="36.2969" rx="12.5" ry="12.5" style="stroke:#181818;stroke-width:1.5;" width="63.8525" x="359.0635" y="113.5938"/><text fill="#000000" font-family="sans-serif" font-size="14" lengthAdjust="spacing" textLength="43.8525" x="369.0635" y="136.5889">kernel</text><path d="M309.0635,173.9648 L319.0635,173.9648 C334.0635,173.9648 334.0635,131.7422 349.0635,131.7422 L359.0635,131.7422" fill="none" style="stroke:#181818;stroke-width:1;"/><rect fill="#F1F1F1" height="36.2969" rx="12.5" ry="12.5" style="stroke:#181818;stroke-width:1.5;" width="76.1504" x="359.0635" y="169.8906"/><text fill="#000000" font-family="sans-serif" font-size="14" lengthAdjust="spacing" textLength="56.1504" x="369.0635" y="192.8857">ramdisk</text><rect fill="#F1F1F1" height="36.2969" rx="12.5" ry="12.5" style="stroke:#181818;stroke-width:1.5;" width="42.1416" x="485.2139" y="141.7422"/><text fill="#000000" font-family="sans-serif" font-size="14" lengthAdjust="spacing" textLength="22.1416" x="495.2139" y="164.7373">init</text><path d="M435.2139,188.0391 L445.2139,188.0391 C460.2139,188.0391 460.2139,159.8906 475.2139,159.8906 L485.2139,159.8906" fill="none" style="stroke:#181818;stroke-width:1;"/><rect fill="#FFA500" height="36.2969" rx="12.5" ry="12.5" style="stroke:#181818;stroke-width:1.5;" width="81.5713" x="485.2139" y="198.0391"/><text fill="#000000" font-family="sans-serif" font-size="14" lengthAdjust="spacing" textLength="61.5713" x="495.2139" y="221.0342">recovery</text><path d="M435.2139,188.0391 L445.2139,188.0391 C460.2139,188.0391 460.2139,216.1875 475.2139,216.1875 L485.2139,216.1875" fill="none" style="stroke:#181818;stroke-width:1;"/><path d="M309.0635,173.9648 L319.0635,173.9648 C334.0635,173.9648 334.0635,188.0391 349.0635,188.0391 L359.0635,188.0391" fill="none" style="stroke:#181818;stroke-width:1;"/><path d="M207.5293,145.8164 L217.5293,145.8164 C232.5293,145.8164 232.5293,173.9648 247.5293,173.9648 L257.5293,173.9648" fill="none" style="stroke:#181818;stroke-width:1;"/><path d="M106.0225,272.4844 L116.0225,272.4844 C131.0225,272.4844 131.0225,145.8164 146.0225,145.8164 L156.0225,145.8164" fill="none" style="stroke:#181818;stroke-width:1;"/><rect fill="#F1F1F1" height="36.2969" rx="12.5" ry="12.5" style="stroke:#181818;stroke-width:1.5;" width="107.4863" x="156.0225" y="324.707"/><text fill="#000000" font-family="sans-serif" font-size="14" lengthAdjust="spacing" textLength="87.4863" x="166.0225" y="347.7021">vendor_boot</text><rect fill="#F1F1F1" height="36.2969" rx="12.5" ry="12.5" style="stroke:#181818;stroke-width:1.5;" width="90.9639" x="313.5088" y="254.3359"/><text fill="#000000" font-family="sans-serif" font-size="14" lengthAdjust="spacing" textLength="70.9639" x="323.5088" y="277.3311">header v3</text><rect fill="#ADD8E6" height="36.2969" rx="12.5" ry="12.5" style="stroke:#181818;stroke-width:1.5;" width="75.4873" x="454.4727" y="254.3359"/><text fill="#000000" font-family="sans-serif" font-size="14" lengthAdjust="spacing" textLength="55.4873" x="464.4727" y="277.3311">cmdline</text><path d="M404.4727,272.4844 L414.4727,272.4844 C429.4727,272.4844 429.4727,272.4844 444.4727,272.4844 L454.4727,272.4844" fill="none" style="stroke:#181818;stroke-width:1;"/><path d="M263.5088,342.8555 L273.5088,342.8555 C288.5088,342.8555 288.5088,272.4844 303.5088,272.4844 L313.5088,272.4844" fill="none" style="stroke:#181818;stroke-width:1;"/><rect fill="#F1F1F1" height="36.2969" rx="12.5" ry="12.5" style="stroke:#181818;stroke-width:1.5;" width="51.5342" x="313.5088" y="352.8555"/><text fill="#000000" font-family="sans-serif" font-size="14" lengthAdjust="spacing" textLength="31.5342" x="323.5088" y="375.8506">data</text><rect fill="#ADD8E6" height="36.2969" rx="12.5" ry="12.5" style="stroke:#181818;stroke-width:1.5;" width="43.2627" x="415.043" y="310.6328"/><text fill="#000000" font-family="sans-serif" font-size="14" lengthAdjust="spacing" textLength="23.2627" x="425.043" y="333.6279">dtb</text><path d="M365.043,371.0039 L375.043,371.0039 C390.043,371.0039 390.043,328.7813 405.043,328.7813 L415.043,328.7813" fill="none" style="stroke:#181818;stroke-width:1;"/><rect fill="#F1F1F1" height="36.2969" rx="12.5" ry="12.5" style="stroke:#181818;stroke-width:1.5;" width="76.1504" x="415.043" y="366.9297"/><text fill="#000000" font-family="sans-serif" font-size="14" lengthAdjust="spacing" textLength="56.1504" x="425.043" y="389.9248">ramdisk</text><rect fill="#ADD8E6" height="36.2969" rx="12.5" ry="12.5" style="stroke:#181818;stroke-width:1.5;" width="79.7598" x="541.1934" y="338.7813"/><text fill="#000000" font-family="sans-serif" font-size="14" lengthAdjust="spacing" textLength="59.7598" x="551.1934" y="361.7764">modules</text><path d="M491.1934,385.0781 L501.1934,385.0781 C516.1934,385.0781 516.1934,356.9297 531.1934,356.9297 L541.1934,356.9297" fill="none" style="stroke:#181818;stroke-width:1;"/><rect fill="#F1F1F1" height="36.2969" rx="12.5" ry="12.5" style="stroke:#181818;stroke-width:1.5;" width="55.1777" x="541.1934" y="395.0781"/><text fill="#000000" font-family="sans-serif" font-size="14" lengthAdjust="spacing" textLength="35.1777" x="551.1934" y="418.0732">fstab</text><path d="M491.1934,385.0781 L501.1934,385.0781 C516.1934,385.0781 516.1934,413.2266 531.1934,413.2266 L541.1934,413.2266" fill="none" style="stroke:#181818;stroke-width:1;"/><path d="M365.043,371.0039 L375.043,371.0039 C390.043,371.0039 390.043,385.0781 405.043,385.0781 L415.043,385.0781" fill="none" style="stroke:#181818;stroke-width:1;"/><path d="M263.5088,342.8555 L273.5088,342.8555 C288.5088,342.8555 288.5088,371.0039 303.5088,371.0039 L313.5088,371.0039" fill="none" style="stroke:#181818;stroke-width:1;"/><path d="M106.0225,272.4844 L116.0225,272.4844 C131.0225,272.4844 131.0225,342.8555 146.0225,342.8555 L156.0225,342.8555" fill="none" style="stroke:#181818;stroke-width:1;"/><rect fill="#F1F1F1" height="36.2969" rx="12.5" ry="12.5" style="stroke:#181818;stroke-width:1.5;" width="51.8281" x="156.0225" y="451.375"/><text fill="#000000" font-family="sans-serif" font-size="14" lengthAdjust="spacing" textLength="31.8281" x="166.0225" y="474.3701">dtbo</text><rect fill="#ADD8E6" height="36.2969" rx="12.5" ry="12.5" style="stroke:#181818;stroke-width:1.5;" width="99.6865" x="257.8506" y="451.375"/><text fill="#000000" font-family="sans-serif" font-size="14" lengthAdjust="spacing" textLength="79.6865" x="267.8506" y="474.3701">dtb overlay</text><path d="M207.8506,469.5234 L217.8506,469.5234 C232.8506,469.5234 232.8506,469.5234 247.8506,469.5234 L257.8506,469.5234" fill="none" style="stroke:#181818;stroke-width:1;"/><path d="M106.0225,272.4844 L116.0225,272.4844 C131.0225,272.4844 131.0225,469.5234 146.0225,469.5234 L156.0225,469.5234" fill="none" style="stroke:#181818;stroke-width:1;"/><rect fill="#F1F1F1" height="36.2969" rx="12.5" ry="12.5" style="stroke:#181818;stroke-width:1.5;" width="95.2021" x="10" y="690.6367"/><text fill="#000000" font-family="sans-serif" font-size="14" lengthAdjust="spacing" textLength="75.2021" x="20" y="713.6318">AOSP ROM</text><rect fill="#F1F1F1" height="36.2969" rx="12.5" ry="12.5" style="stroke:#181818;stroke-width:1.5;" width="51.5068" x="155.2021" y="563.9688"/><text fill="#000000" font-family="sans-serif" font-size="14" lengthAdjust="spacing" textLength="31.5068" x="165.2021" y="586.9639">boot</text><rect fill="#F1F1F1" height="36.2969" rx="12.5" ry="12.5" style="stroke:#181818;stroke-width:1.5;" width="90.9639" x="256.709" y="507.6719"/><text fill="#000000" font-family="sans-serif" font-size="14" lengthAdjust="spacing" textLength="70.9639" x="266.709" y="530.667">header v3</text><path d="M206.709,582.1172 L216.709,582.1172 C231.709,582.1172 231.709,525.8203 246.709,525.8203 L256.709,525.8203" fill="none" style="stroke:#181818;stroke-width:1;"/><rect fill="#F1F1F1" height="36.2969" rx="12.5" ry="12.5" style="stroke:#181818;stroke-width:1.5;" width="51.5342" x="256.709" y="592.1172"/><text fill="#000000" font-family="sans-serif" font-size="14" lengthAdjust="spacing" textLength="31.5342" x="266.709" y="615.1123">data</text><rect fill="#ADD8E6" height="36.2969" rx="12.5" ry="12.5" style="stroke:#181818;stroke-width:1.5;" width="63.8525" x="358.2432" y="563.9688"/><text fill="#000000" font-family="sans-serif" font-size="14" lengthAdjust="spacing" textLength="43.8525" x="368.2432" y="586.9639">kernel</text><path d="M308.2432,610.2656 L318.2432,610.2656 C333.2432,610.2656 333.2432,582.1172 348.2432,582.1172 L358.2432,582.1172" fill="none" style="stroke:#181818;stroke-width:1;"/><rect fill="#F1F1F1" height="36.2969" rx="12.5" ry="12.5" style="stroke:#181818;stroke-width:1.5;" width="76.1504" x="358.2432" y="620.2656"/><text fill="#000000" font-family="sans-serif" font-size="14" lengthAdjust="spacing" textLength="56.1504" x="368.2432" y="643.2607">ramdisk</text><rect fill="#F1F1F1" height="36.2969" rx="12.5" ry="12.5" style="stroke:#181818;stroke-width:1.5;" width="42.1416" x="484.3936" y="620.2656"/><text fill="#000000" font-family="sans-serif" font-size="14" lengthAdjust="spacing" textLength="22.1416" x="494.3936" y="643.2607">init</text><path d="M434.3936,638.4141 L444.3936,638.4141 C459.3936,638.4141 459.3936,638.4141 474.3936,638.4141 L484.3936,638.4141" fill="none" style="stroke:#181818;stroke-width:1;"/><path d="M308.2432,610.2656 L318.2432,610.2656 C333.2432,610.2656 333.2432,638.4141 348.2432,638.4141 L358.2432,638.4141" fill="none" style="stroke:#181818;stroke-width:1;"/><path d="M206.709,582.1172 L216.709,582.1172 C231.709,582.1172 231.709,610.2656 246.709,610.2656 L256.709,610.2656" fill="none" style="stroke:#181818;stroke-width:1;"/><path d="M105.2021,708.7852 L115.2021,708.7852 C130.2021,708.7852 130.2021,582.1172 145.2021,582.1172 L155.2021,582.1172" fill="none" style="stroke:#181818;stroke-width:1;"/><rect fill="#F1F1F1" height="36.2969" rx="12.5" ry="12.5" style="stroke:#181818;stroke-width:1.5;" width="107.4863" x="155.2021" y="746.9336"/><text fill="#000000" font-family="sans-serif" font-size="14" lengthAdjust="spacing" textLength="87.4863" x="165.2021" y="769.9287">vendor_boot</text><rect fill="#F1F1F1" height="36.2969" rx="12.5" ry="12.5" style="stroke:#181818;stroke-width:1.5;" width="90.9639" x="312.6885" y="676.5625"/><text fill="#000000" font-family="sans-serif" font-size="14" lengthAdjust="spacing" textLength="70.9639" x="322.6885" y="699.5576">header v3</text><rect fill="#ADD8E6" height="36.2969" rx="12.5" ry="12.5" style="stroke:#181818;stroke-width:1.5;" width="75.4873" x="453.6523" y="676.5625"/><text fill="#000000" font-family="sans-serif" font-size="14" lengthAdjust="spacing" textLength="55.4873" x="463.6523" y="699.5576">cmdline</text><path d="M403.6523,694.7109 L413.6523,694.7109 C428.6523,694.7109 428.6523,694.7109 443.6523,694.7109 L453.6523,694.7109" fill="none" style="stroke:#181818;stroke-width:1;"/><path d="M262.6885,765.082 L272.6885,765.082 C287.6885,765.082 287.6885,694.7109 302.6885,694.7109 L312.6885,694.7109" fill="none" style="stroke:#181818;stroke-width:1;"/><rect fill="#F1F1F1" height="36.2969" rx="12.5" ry="12.5" style="stroke:#181818;stroke-width:1.5;" width="51.5342" x="312.6885" y="775.082"/><text fill="#000000" font-family="sans-serif" font-size="14" lengthAdjust="spacing" textLength="31.5342" x="322.6885" y="798.0771">data</text><rect fill="#ADD8E6" height="36.2969" rx="12.5" ry="12.5" style="stroke:#181818;stroke-width:1.5;" width="43.2627" x="414.2227" y="732.8594"/><text fill="#000000" font-family="sans-serif" font-size="14" lengthAdjust="spacing" textLength="23.2627" x="424.2227" y="755.8545">dtb</text><path d="M364.2227,793.2305 L374.2227,793.2305 C389.2227,793.2305 389.2227,751.0078 404.2227,751.0078 L414.2227,751.0078" fill="none" style="stroke:#181818;stroke-width:1;"/><rect fill="#F1F1F1" height="36.2969" rx="12.5" ry="12.5" style="stroke:#181818;stroke-width:1.5;" width="76.1504" x="414.2227" y="789.1563"/><text fill="#000000" font-family="sans-serif" font-size="14" lengthAdjust="spacing" textLength="56.1504" x="424.2227" y="812.1514">ramdisk</text><rect fill="#FFA500" height="36.2969" rx="12.5" ry="12.5" style="stroke:#181818;stroke-width:1.5;" width="81.5713" x="540.373" y="761.0078"/><text fill="#000000" font-family="sans-serif" font-size="14" lengthAdjust="spacing" textLength="61.5713" x="550.373" y="784.0029">recovery</text><path d="M490.373,807.3047 L500.373,807.3047 C515.373,807.3047 515.373,779.1563 530.373,779.1563 L540.373,779.1563" fill="none" style="stroke:#181818;stroke-width:1;"/><rect fill="#F1F1F1" height="36.2969" rx="12.5" ry="12.5" style="stroke:#181818;stroke-width:1.5;" width="55.1777" x="540.373" y="817.3047"/><text fill="#000000" font-family="sans-serif" font-size="14" lengthAdjust="spacing" textLength="35.1777" x="550.373" y="840.2998">fstab</text><path d="M490.373,807.3047 L500.373,807.3047 C515.373,807.3047 515.373,835.4531 530.373,835.4531 L540.373,835.4531" fill="none" style="stroke:#181818;stroke-width:1;"/><path d="M364.2227,793.2305 L374.2227,793.2305 C389.2227,793.2305 389.2227,807.3047 404.2227,807.3047 L414.2227,807.3047" fill="none" style="stroke:#181818;stroke-width:1;"/><path d="M262.6885,765.082 L272.6885,765.082 C287.6885,765.082 287.6885,793.2305 302.6885,793.2305 L312.6885,793.2305" fill="none" style="stroke:#181818;stroke-width:1;"/><path d="M105.2021,708.7852 L115.2021,708.7852 C130.2021,708.7852 130.2021,765.082 145.2021,765.082 L155.2021,765.082" fill="none" style="stroke:#181818;stroke-width:1;"/><rect fill="#F1F1F1" height="36.2969" rx="12.5" ry="12.5" style="stroke:#181818;stroke-width:1.5;" width="51.8281" x="155.2021" y="873.6016"/><text fill="#000000" font-family="sans-serif" font-size="14" lengthAdjust="spacing" textLength="31.8281" x="165.2021" y="896.5967">dtbo</text><rect fill="#F1F1F1" height="36.2969" rx="12.5" ry="12.5" style="stroke:#181818;stroke-width:1.5;" width="88.373" x="257.0303" y="873.6016"/><text fill="#000000" font-family="sans-serif" font-size="14" lengthAdjust="spacing" textLength="68.373" x="267.0303" y="896.5967">&lt;empty&gt;</text><path d="M207.0303,891.75 L217.0303,891.75 C232.0303,891.75 232.0303,891.75 247.0303,891.75 L257.0303,891.75" fill="none" style="stroke:#181818;stroke-width:1;"/><path d="M105.2021,708.7852 L115.2021,708.7852 C130.2021,708.7852 130.2021,891.75 145.2021,891.75 L155.2021,891.75" fill="none" style="stroke:#181818;stroke-width:1;"/><g class="legend" data-source-line="42"><rect fill="#DDDDDD" height="46.5938" rx="7.5" ry="7.5" style="stroke:#000000;stroke-width:1;" width="132.2881" x="476.6563" y="931.8984"/><rect fill="#FFA500" height="16.2969" style="stroke:none;stroke-width:1;" width="122.2881" x="481.6563" y="938.8984"/><text fill="#000000" font-family="sans-serif" font-size="14" lengthAdjust="spacing" textLength="65.543" x="486.1064" y="951.8936">Recovery</text><rect fill="#ADD8E6" height="16.2969" style="stroke:none;stroke-width:1;" width="122.2881" x="481.6563" y="955.1953"/><text fill="#000000" font-family="sans-serif" font-size="14" lengthAdjust="spacing" textLength="117.8379" x="486.1064" y="968.1904">Kernel resources</text><line style="stroke:#000000;stroke-width:1;" x1="481.6563" x2="603.9443" y1="938.8984" y2="938.8984"/><line style="stroke:#000000;stroke-width:1;" x1="481.6563" x2="603.9443" y1="955.1953" y2="955.1953"/><line style="stroke:#000000;stroke-width:1;" x1="481.6563" x2="603.9443" y1="971.4922" y2="971.4922"/><line style="stroke:#000000;stroke-width:1;" x1="481.6563" x2="481.6563" y1="938.8984" y2="971.4922"/><line style="stroke:#000000;stroke-width:1;" x1="603.9443" x2="603.9443" y1="938.8984" y2="971.4922"/></g></g></svg>
